<svg xmlns="http://www.w3.org/2000/svg" viewBox="0 0 100 400" fill="none" aria-hidden="true">
  <path d="M52 8 C55 14, 56 22, 53 30 C50 38, 48 48, 49 58 C50 70, 48 82, 46 94 C44 108, 45 122, 47 136 C49 150, 50 165, 48 180 C46 196, 44 212, 45 228 C46 244, 48 260, 47 276 C46 292, 44 308, 45 324 C46 340, 48 356, 50 372 C51 380, 50 388, 48 394 C47 397, 45 397, 44 394 C42 388, 41 380, 40 372 C38 356, 36 340, 35 324 C34 308, 35 292, 36 276 C37 260, 38 244, 37 228 C36 212, 35 196, 36 180 C37 165, 38 150, 39 136 C40 122, 41 108, 39 94 C37 82, 35 70, 36 58 C37 48, 39 38, 42 30 C44 22, 46 14, 49 8 Z"
        fill="#E8EEF9" stroke="#1E5BB8" stroke-width="0.5"/>
  <!-- Coverage markers -->
  <circle cx="44" cy="130" r="3" fill="#F39200"/>
  <text x="50" y="133" font-family="Figtree, sans-serif" font-size="6" fill="#fff">Santiago (RM)</text>
  <circle cx="43" cy="155" r="3" fill="#F39200"/>
  <text x="50" y="158" font-family="Figtree, sans-serif" font-size="6" fill="#fff">Rancagua (VI)</text>
  <circle cx="44" cy="115" r="3" fill="#F39200"/>
  <text x="50" y="118" font-family="Figtree, sans-serif" font-size="6" fill="#fff">V Región</text>
  <circle cx="42" cy="360" r="3" fill="#F39200"/>
  <text x="50" y="363" font-family="Figtree, sans-serif" font-size="6" fill="#fff">Punta Arenas</text>
</svg>
